<svg preserveAspectRatio="xMidYMid meet" data-bbox="1.15 0.652 155.198 50.863" xmlns="http://www.w3.org/2000/svg" viewBox="0 0 157 53" height="53" width="157" data-type="ugc" role="presentation" aria-hidden="true" aria-label="">
    <g>
        <path fill="#ffffff" d="M156.348 9.129v33.909a8.477 8.477 0 0 1-8.477 8.477H9.627a8.477 8.477 0 0 1-8.477-8.477V9.129A8.477 8.477 0 0 1 9.627.652h138.244a8.477 8.477 0 0 1 8.477 8.477z"></path>
        <path fill="#000000" d="M106.823 25.04v2.989h-1.873v1.959h1.873v6.658c0 2.273 1.028 3.183 3.615 3.183a7.41 7.41 0 0 0 1.267-.12v-1.937c-.325.032-.53.054-.888.054-1.158 0-1.667-.541-1.667-1.776v-6.062h2.555v-1.96h-2.555v-2.987h-2.327Z"></path>
        <path fill="#000000" d="M118.296 39.991c3.443 0 5.554-2.306 5.554-6.127 0-3.8-2.122-6.117-5.554-6.117-3.442 0-5.564 2.317-5.564 6.117 0 3.821 2.111 6.127 5.564 6.127Zm0-2.068c-2.024 0-3.161-1.483-3.161-4.06 0-2.554 1.137-4.048 3.161-4.048 2.014 0 3.161 1.494 3.161 4.049 0 2.565-1.147 4.06-3.161 4.06Z"></path>
        <path fill="#000000" d="M125.656 39.764h2.328v-6.961c0-1.657 1.244-2.772 3.009-2.772.411 0 1.104.076 1.299.141v-2.295c-.249-.065-.693-.097-1.039-.097-1.537 0-2.847.844-3.183 2.002h-.173v-1.808h-2.241v11.79Z"></path>
        <path fill="#000000" d="M138.071 29.728c1.722 0 2.848 1.202 2.902 3.053h-5.955c.13-1.84 1.332-3.053 3.053-3.053Zm2.891 6.853c-.433.92-1.397 1.429-2.804 1.429-1.862 0-3.064-1.31-3.14-3.378v-.13h8.325v-.812c0-3.702-1.981-5.943-5.261-5.943-3.323 0-5.434 2.393-5.434 6.16 0 3.767 2.067 6.084 5.445 6.084 2.696 0 4.579-1.3 5.11-3.41h-2.241Z"></path>
        <path fill="#000000" d="M91.559 35.41c.18 2.895 2.592 4.746 6.183 4.746 3.837 0 6.238-1.94 6.238-5.038 0-2.434-1.369-3.781-4.69-4.555l-1.784-.438c-2.11-.494-2.962-1.155-2.962-2.311 0-1.459 1.324-2.413 3.31-2.413 1.885 0 3.186.932 3.422 2.424h2.446c-.146-2.727-2.547-4.645-5.835-4.645-3.534 0-5.89 1.918-5.89 4.802 0 2.379 1.335 3.793 4.263 4.477l2.087.505c2.144.505 3.086 1.245 3.086 2.48 0 1.436-1.481 2.48-3.5 2.48-2.166 0-3.67-.977-3.883-2.514h-2.491Z"></path>
        <path fill="#000000" d="M67.448 27.78c-1.602 0-2.988.8-3.702 2.143h-.173v-1.949h-2.241v15.709h2.327v-5.706h.184c.617 1.245 1.949 1.982 3.627 1.982 2.977 0 4.871-2.35 4.871-6.095 0-3.746-1.894-6.084-4.893-6.084Zm-.66 10.09c-1.949 0-3.172-1.538-3.172-3.995 0-2.469 1.223-4.006 3.183-4.006 1.97 0 3.15 1.505 3.15 3.995 0 2.5-1.18 4.005-3.161 4.005Z"></path>
        <path fill="#000000" d="M80.486 27.78c-1.602 0-2.988.8-3.703 2.143h-.173v-1.949h-2.24v15.709h2.327v-5.706h.184c.617 1.245 1.948 1.982 3.626 1.982 2.978 0 4.872-2.35 4.872-6.095 0-3.746-1.894-6.084-4.893-6.084Zm-.66 10.09c-1.95 0-3.172-1.538-3.172-3.995 0-2.469 1.223-4.006 3.182-4.006 1.97 0 3.15 1.505 3.15 3.995 0 2.5-1.18 4.005-3.16 4.005Z"></path>
        <path fill="#000000" d="M57.156 39.764h2.67L53.98 23.572h-2.704L45.43 39.764h2.58l1.493-4.298h6.172l1.48 4.298Zm-4.657-13.252h.19l2.346 6.845h-4.892l2.356-6.845Z"></path>
        <path fill="#000000" d="M46.994 11.36v7.812h2.82c2.327 0 3.675-1.435 3.675-3.93 0-2.458-1.358-3.881-3.675-3.881h-2.82Zm1.212 1.105h1.472c1.619 0 2.577 1.028 2.577 2.793 0 1.792-.942 2.81-2.577 2.81h-1.472v-5.603Z"></path>
        <path fill="#000000" d="M57.617 19.285c1.721 0 2.777-1.153 2.777-3.063 0-1.9-1.061-3.059-2.777-3.059-1.721 0-2.782 1.159-2.782 3.059 0 1.91 1.055 3.063 2.782 3.063Zm0-1.034c-1.012 0-1.58-.741-1.58-2.03 0-1.277.568-2.024 1.58-2.024 1.007 0 1.58.747 1.58 2.025 0 1.282-.573 2.03-1.58 2.03Z"></path>
        <path fill="#000000" d="M69.382 13.277H68.22l-1.05 4.498h-.093l-1.212-4.498H64.75l-1.212 4.498h-.087l-1.056-4.498h-1.18l1.624 5.895h1.196l1.213-4.341h.092l1.218 4.34h1.207l1.618-5.894Z"></path>
        <path fill="#000000" d="M70.723 19.172h1.163v-3.448c0-.92.547-1.494 1.408-1.494.86 0 1.272.47 1.272 1.418v3.524h1.163v-3.816c0-1.402-.725-2.193-2.04-2.193-.888 0-1.472.396-1.76 1.05h-.086v-.936h-1.12v5.895Z"></path>
        <path fill="#000000" d="M77.562 19.172h1.164v-8.195h-1.164v8.195Z"></path>
        <path fill="#000000" d="M83.103 19.285c1.721 0 2.777-1.153 2.777-3.063 0-1.9-1.061-3.059-2.777-3.059-1.721 0-2.782 1.159-2.782 3.059 0 1.91 1.055 3.063 2.782 3.063Zm0-1.034c-1.012 0-1.58-.741-1.58-2.03 0-1.277.568-2.024 1.58-2.024 1.007 0 1.58.747 1.58 2.025 0 1.282-.573 2.03-1.58 2.03Z"></path>
        <path fill="#000000" d="M89.347 18.29c-.633 0-1.093-.31-1.093-.84 0-.52.368-.795 1.18-.85l1.44-.091V17c0 .73-.65 1.288-1.527 1.288Zm-.297.98c.773 0 1.418-.337 1.77-.927h.092v.829h1.12v-4.027c0-1.245-.834-1.982-2.311-1.982-1.337 0-2.29.65-2.41 1.662h1.127c.13-.417.579-.655 1.228-.655.796 0 1.208.352 1.208.975v.508l-1.597.092c-1.402.087-2.192.699-2.192 1.76 0 1.077.828 1.764 1.965 1.764Z"></path>
        <path fill="#000000" d="M95.981 19.27c.812 0 1.5-.385 1.851-1.03h.092v.932h1.115v-8.195h-1.163v3.236h-.087c-.32-.65-1.001-1.033-1.808-1.033-1.488 0-2.446 1.18-2.446 3.042 0 1.867.947 3.047 2.446 3.047Zm.33-5.046c.975 0 1.586.774 1.586 2.003 0 1.234-.606 1.997-1.586 1.997-.985 0-1.575-.752-1.575-2.002 0-1.24.596-1.998 1.575-1.998Z"></path>
        <path fill="#000000" d="M106.586 19.285c1.721 0 2.777-1.153 2.777-3.063 0-1.9-1.061-3.059-2.777-3.059-1.721 0-2.782 1.159-2.782 3.059 0 1.91 1.055 3.063 2.782 3.063Zm0-1.034c-1.012 0-1.58-.741-1.58-2.03 0-1.277.568-2.024 1.58-2.024 1.007 0 1.581.747 1.581 2.025 0 1.282-.574 2.03-1.581 2.03Z"></path>
        <path fill="#000000" d="M110.903 19.172h1.164v-3.448c0-.92.547-1.494 1.407-1.494.861 0 1.273.47 1.273 1.418v3.524h1.163v-3.816c0-1.402-.725-2.193-2.04-2.193-.888 0-1.473.396-1.76 1.05h-.086v-.936h-1.121v5.895Z"></path>
        <path fill="#000000" d="M121.27 11.81v1.494h-.936v.98h.936v3.329c0 1.136.514 1.591 1.808 1.591.227 0 .444-.027.633-.06v-.968c-.162.016-.265.027-.444.027-.579 0-.833-.27-.833-.888v-3.031h1.277v-.98h-1.277V11.81h-1.164Z"></path>
        <path fill="#000000" d="M125.273 19.172h1.164v-3.443c0-.893.531-1.494 1.483-1.494.823 0 1.262.476 1.262 1.418v3.519h1.163v-3.806c0-1.402-.774-2.197-2.03-2.197-.887 0-1.51.395-1.797 1.055h-.092v-3.247h-1.153v8.195Z"></path>
        <path fill="#000000" d="M134.544 14.154c.86 0 1.423.6 1.45 1.526h-2.977c.065-.92.666-1.526 1.527-1.526Zm1.445 3.426c-.217.46-.699.715-1.402.715-.931 0-1.532-.655-1.57-1.69v-.064h4.163v-.406c0-1.851-.991-2.972-2.631-2.972-1.662 0-2.717 1.197-2.717 3.08 0 1.884 1.034 3.042 2.722 3.042 1.348 0 2.29-.65 2.555-1.705h-1.12Z"></path>
        <path fill="#000000" d="M32.801 26.478a6.506 6.506 0 0 1 3.074-5.415 6.688 6.688 0 0 0-5.206-2.814c-2.19-.23-4.313 1.31-5.429 1.31-1.137 0-2.855-1.287-4.706-1.25a6.99 6.99 0 0 0-5.833 3.558c-2.523 4.367-.641 10.785 1.775 14.315 1.209 1.729 2.622 3.66 4.47 3.591 1.81-.075 2.485-1.154 4.668-1.154 2.164 0 2.798 1.154 4.684 1.11 1.94-.031 3.164-1.736 4.33-3.48a14.295 14.295 0 0 0 1.98-4.034 6.292 6.292 0 0 1-3.807-5.737Z"></path>
        <path fill="#000000" d="M29.239 15.927a6.355 6.355 0 0 0 1.453-4.552 6.465 6.465 0 0 0-4.183 2.164 6.102 6.102 0 0 0-1.492 4.384 5.409 5.409 0 0 0 4.222-1.996Z"></path>
        <path stroke-width="1.304" stroke="#000000" d="M156.348 9.129v33.909a8.477 8.477 0 0 1-8.477 8.477H9.627a8.477 8.477 0 0 1-8.477-8.477V9.129A8.477 8.477 0 0 1 9.627.652h138.244a8.477 8.477 0 0 1 8.477 8.477z" fill="none"></path>
    </g>
</svg>