<svg preserveAspectRatio="xMidYMid meet" data-bbox="0.652 0.652 174.76 50.863" xmlns="http://www.w3.org/2000/svg" viewBox="0 0 177 53" height="53" width="177" data-type="ugc" role="presentation" aria-hidden="true" aria-label="">
    <g>
        <path fill="#ffffff" d="M175.412 6.521v39.125a5.869 5.869 0 0 1-5.869 5.869H6.521a5.869 5.869 0 0 1-5.869-5.869V6.521A5.869 5.869 0 0 1 6.521.652h163.022a5.869 5.869 0 0 1 5.869 5.869z"></path>
        <path fill="#000000" d="M88.862 28.37c-3.067 0-5.568 2.332-5.568 5.546 0 3.194 2.5 5.547 5.568 5.547 3.069 0 5.569-2.353 5.569-5.547-.002-3.214-2.502-5.547-5.57-5.547Zm0 8.91c-1.681 0-3.13-1.387-3.13-3.363 0-1.997 1.45-3.362 3.13-3.362 1.681 0 3.13 1.366 3.13 3.362 0 1.975-1.449 3.362-3.13 3.362Zm-12.147-8.91c-3.068 0-5.568 2.332-5.568 5.546 0 3.194 2.5 5.547 5.568 5.547 3.069 0 5.569-2.353 5.569-5.547 0-3.214-2.5-5.547-5.57-5.547Zm0 8.91c-1.681 0-3.13-1.387-3.13-3.363 0-1.997 1.45-3.362 3.13-3.362s3.13 1.366 3.13 3.362c.001 1.975-1.45 3.362-3.13 3.362Zm-14.448-7.207v2.352h5.631c-.168 1.324-.609 2.29-1.282 2.962-.819.82-2.1 1.723-4.349 1.723-3.467 0-6.177-2.795-6.177-6.261 0-3.467 2.71-6.262 6.177-6.262 1.87 0 3.236.736 4.244 1.681l1.66-1.66c-1.409-1.345-3.277-2.374-5.904-2.374-4.748 0-8.74 3.866-8.74 8.614 0 4.749 3.992 8.615 8.74 8.615 2.563 0 4.497-.842 6.008-2.417 1.555-1.555 2.039-3.74 2.039-5.505a7.61 7.61 0 0 0-.127-1.47h-7.92v.002Zm59.09 1.827c-.462-1.24-1.87-3.53-4.749-3.53-2.857 0-5.232 2.248-5.232 5.546 0 3.11 2.354 5.547 5.505 5.547 2.542 0 4.013-1.555 4.623-2.459l-1.891-1.26c-.63.924-1.492 1.533-2.732 1.533-1.239 0-2.122-.568-2.689-1.681l7.417-3.068-.252-.628Zm-7.564 1.849c-.063-2.144 1.66-3.236 2.9-3.236.967 0 1.786.484 2.059 1.177l-4.959 2.059Zm-6.03 5.378h2.437V22.824h-2.437v16.303Zm-3.993-9.518h-.083c-.547-.652-1.598-1.24-2.921-1.24-2.773 0-5.315 2.438-5.315 5.57 0 3.108 2.542 5.525 5.315 5.525 1.324 0 2.374-.588 2.921-1.26h.083v.798c0 2.122-1.135 3.257-2.962 3.257-1.492 0-2.416-1.07-2.795-1.975l-2.122.883c.61 1.47 2.227 3.278 4.917 3.278 2.858 0 5.274-1.681 5.274-5.78v-9.958h-2.311v.902h-.001Zm-2.794 7.67c-1.68 0-3.088-1.408-3.088-3.34 0-1.956 1.407-3.384 3.088-3.384 1.659 0 2.962 1.428 2.962 3.383 0 1.933-1.303 3.341-2.962 3.341Zm31.798-14.455h-5.831v16.303h2.432v-6.176h3.397c2.697 0 5.35-1.953 5.35-5.063 0-3.11-2.651-5.064-5.348-5.064Zm.062 7.858h-3.461v-5.589h3.461c1.82 0 2.853 1.506 2.853 2.795 0 1.262-1.033 2.794-2.853 2.794Zm15.04-2.341c-1.762 0-3.586.775-4.341 2.496l2.159.901c.462-.901 1.323-1.196 2.224-1.196 1.258 0 2.538.755 2.559 2.097v.168c-.441-.251-1.385-.628-2.538-.628-2.328 0-4.699 1.28-4.699 3.67 0 2.182 1.909 3.586 4.048 3.586 1.635 0 2.538-.734 3.104-1.595h.083v1.26h2.351v-6.251c.001-2.893-2.162-4.507-4.95-4.507Zm-.295 8.934c-.795 0-1.908-.399-1.908-1.384 0-1.26 1.385-1.742 2.581-1.742 1.068 0 1.573.231 2.223.545a2.95 2.95 0 0 1-2.896 2.581Zm13.803-8.578-2.79 7.068h-.084l-2.895-7.068h-2.621l4.341 9.879-2.475 5.496h2.538l6.692-15.375h-2.706Zm-21.919 10.43h2.433V22.824h-2.433v16.303Z"></path>
        <path fill="#000000" d="M61.842 13.359c0 1.092-.324 1.962-.972 2.612-.735.772-1.695 1.158-2.874 1.158-1.13 0-2.09-.391-2.88-1.174-.79-.784-1.185-1.754-1.185-2.912 0-1.16.395-2.13 1.185-2.912.79-.784 1.75-1.175 2.88-1.175.56 0 1.097.11 1.605.327.51.22.918.51 1.224.874l-.688.688c-.517-.62-1.23-.928-2.142-.928a2.98 2.98 0 0 0-2.138.868c-.601.58-.901 1.332-.901 2.257 0 .924.3 1.677.9 2.256a2.98 2.98 0 0 0 2.139.868c.873 0 1.602-.29 2.185-.873.379-.38.598-.908.656-1.585h-2.841v-.94h3.79c.04.205.057.401.057.59Z"></path>
        <path fill="#000000" d="M67.854 10.09h-3.563v2.48h3.214v.941H64.29v2.48h3.563v.963h-4.568V9.13h4.568v.961Z"></path>
        <path fill="#000000" d="M72.094 16.954h-1.005V10.09h-2.186v-.96h5.377v.96h-2.186v6.864Z"></path>
        <path fill="#000000" d="M78.17 16.954V9.13h1.006v7.825H78.17Z"></path>
        <path fill="#000000" d="M83.635 16.954h-1.006V10.09h-2.186v-.96h5.378v.96h-2.186v6.864Z"></path>
        <path fill="#000000" d="M96 15.944c-.77.79-1.726 1.185-2.87 1.185-1.143 0-2.1-.395-2.868-1.186-.769-.79-1.153-1.758-1.153-2.901 0-1.144.384-2.112 1.153-2.902s1.725-1.187 2.868-1.187c1.138 0 2.092.398 2.864 1.192.772.794 1.158 1.76 1.158 2.897 0 1.143-.384 2.111-1.153 2.902Zm-4.996-.657c.58.587 1.288.88 2.126.88.839 0 1.548-.294 2.126-.88.58-.586.87-1.335.87-2.245 0-.91-.29-1.66-.87-2.246-.578-.587-1.287-.88-2.126-.88-.838 0-1.546.294-2.126.88-.577.587-.868 1.335-.868 2.246 0 .91.29 1.659.868 2.245Z"></path>
        <path fill="#000000" d="M98.564 16.954V9.13h1.223l3.803 6.087h.043l-.043-1.508V9.13h1.005v7.825h-1.049l-3.98-6.382h-.043l.044 1.507v4.875h-1.003Z"></path>
        <path stroke-miterlimit="10" stroke-width=".261" stroke="#000000" d="M61.842 13.359c0 1.092-.324 1.962-.972 2.612-.735.772-1.695 1.158-2.874 1.158-1.13 0-2.09-.391-2.88-1.174-.79-.784-1.185-1.754-1.185-2.912 0-1.16.395-2.13 1.185-2.912.79-.784 1.75-1.175 2.88-1.175.56 0 1.097.11 1.605.327.51.22.918.51 1.224.874l-.688.688c-.517-.62-1.23-.928-2.142-.928a2.98 2.98 0 0 0-2.138.868c-.601.58-.901 1.332-.901 2.257 0 .924.3 1.677.9 2.256a2.98 2.98 0 0 0 2.139.868c.873 0 1.602-.29 2.185-.873.379-.38.598-.908.656-1.585h-2.841v-.94h3.79c.04.205.057.401.057.59Z" fill="none"></path>
        <path stroke-miterlimit="10" stroke-width=".261" stroke="#000000" d="M67.854 10.09h-3.563v2.48h3.214v.941H64.29v2.48h3.563v.963h-4.568V9.13h4.568v.961Z" fill="none"></path>
        <path stroke-miterlimit="10" stroke-width=".261" stroke="#000000" d="M72.094 16.954h-1.005V10.09h-2.186v-.96h5.377v.96h-2.186v6.864Z" fill="none"></path>
        <path stroke-miterlimit="10" stroke-width=".261" stroke="#000000" d="M78.17 16.954V9.13h1.006v7.825H78.17Z" fill="none"></path>
        <path stroke-miterlimit="10" stroke-width=".261" stroke="#000000" d="M83.635 16.954h-1.006V10.09h-2.186v-.96h5.378v.96h-2.186v6.864Z" fill="none"></path>
        <path stroke-miterlimit="10" stroke-width=".261" stroke="#000000" d="M96 15.944c-.77.79-1.726 1.185-2.87 1.185-1.143 0-2.1-.395-2.868-1.186-.769-.79-1.153-1.758-1.153-2.901 0-1.144.384-2.112 1.153-2.902s1.725-1.187 2.868-1.187c1.138 0 2.092.398 2.864 1.192.772.794 1.158 1.76 1.158 2.897 0 1.143-.384 2.111-1.153 2.902Zm-4.996-.657c.58.587 1.288.88 2.126.88.839 0 1.548-.294 2.126-.88.58-.586.87-1.335.87-2.245 0-.91-.29-1.66-.87-2.246-.578-.587-1.287-.88-2.126-.88-.838 0-1.546.294-2.126.88-.577.587-.868 1.335-.868 2.246 0 .91.29 1.659.868 2.245Z" fill="none"></path>
        <path stroke-miterlimit="10" stroke-width=".261" stroke="#000000" d="M98.564 16.954V9.13h1.223l3.803 6.087h.043l-.043-1.508V9.13h1.005v7.825h-1.049l-3.98-6.382h-.043l.044 1.507v4.875h-1.003Z" fill="none"></path>
        <path fill="#000000" d="M13.246 10.39c-.154.348-.24.775-.24 1.273v28.843c0 .498.086.926.24 1.275L28.94 26.084 13.246 10.389Zm.906 32.329c.582.248 1.341.17 2.168-.3l18.464-10.492-4.921-4.92-15.71 15.712Zm21.81-11.459 5.792-3.291c1.822-1.037 1.822-2.731 0-3.767l-5.795-3.292-5.173 5.174 5.176 5.176Zm-1.179-11.019L16.321 9.751c-.828-.47-1.587-.549-2.169-.3l15.71 15.71 4.92-4.92Z" clip-rule="evenodd" fill-rule="evenodd"></path>
        <path stroke-width="1.304" stroke="#000000" d="M175.412 6.521v39.125a5.869 5.869 0 0 1-5.869 5.869H6.521a5.869 5.869 0 0 1-5.869-5.869V6.521A5.869 5.869 0 0 1 6.521.652h163.022a5.869 5.869 0 0 1 5.869 5.869z" fill="none"></path>
    </g>
</svg>