<svg preserveAspectRatio="xMidYMid meet" data-bbox="0 0 173 173" xmlns="http://www.w3.org/2000/svg" viewBox="0 0 173 173" height="173" width="173" data-type="ugc" role="img" aria-label="Ic ">
    <g>
        <path fill="#000000" d="M173 86.5c0 47.773-38.727 86.5-86.5 86.5S0 134.273 0 86.5 38.727 0 86.5 0 173 38.727 173 86.5z"></path>
        <path fill-opacity=".2" fill="url(#d914e95b-941b-425d-ab40-a704eba42971_comp-kbgakxea_r_comp-lbdj5f90)" d="M173 86.5c0 47.773-38.727 86.5-86.5 86.5S0 134.273 0 86.5 38.727 0 86.5 0 173 38.727 173 86.5z"></path>
        <path fill="#ffffff" d="M79.581 56.96c8.363 7.34 14.68 1.503 14.68 1.503s5.656-6.197-4.211-13.837c-9.025-6.98-14.259-.843-14.259-.843s-4.572 5.836 3.79 13.176Z"></path>
        <path fill="#ffffff" d="M143.416 29.584C128.194 14.363 107.979 6 86.5 6s-41.694 8.363-56.916 23.584C14.363 44.806 6 65.022 6 86.5s8.363 41.694 23.584 56.916C44.806 158.637 65.021 167 86.5 167s41.694-8.363 56.916-23.584C158.637 128.194 167 107.979 167 86.5s-8.363-41.694-23.584-56.916ZM10.392 86.5c0-38.204 28.277-69.911 65.038-75.266 4.151 4.994 34.835 42.416 22.2 53.246-5.896 5.054-13.416.24-30.022-3.49-16.605-3.73-39.347-2.767-39.347-2.767s18.05 2.406 37.482 8.423c15.643 4.572 22.682 14.138 23.886 18.65 1.203 4.513 2.406 11.612-9.386 25.691-9.687 11.551-35.076 27.435-43.8 32.729C20.5 129.758 10.392 109.302 10.392 86.5Zm26.833 57.878c7.701-2.406 25.81-8.543 40.732-16.846 23.283-14.319 31.466-26.051 33.752-31.586 2.286-5.535 9.747-21.058-2.166-45.424-10.65-21.78-29.842-36.46-33.813-39.348 3.55-.481 7.16-.782 10.77-.782 41.935 0 76.108 34.113 76.108 76.108 0 12.755-3.189 24.728-8.724 35.317a14.413 14.413 0 0 0-1.444-7.461c-7.761-14.8-37.181-19.674-37.181-19.674s-2.226 5.295-4.874 9.025c-2.707 3.73-6.377 8.002-6.377 8.002s36.279-3.55 38.385 10.95c1.444 9.927-8.784 22.02-13.658 27.074a75.636 75.636 0 0 1-42.295 12.875c-18.711 0-35.978-6.919-49.215-18.23Z"></path>
        <defs fill="none">
            <linearGradient gradientUnits="userSpaceOnUse" y2="153.5" x2="30.5" y1="18.5" x1="140.5" id="d914e95b-941b-425d-ab40-a704eba42971_comp-kbgakxea_r_comp-lbdj5f90">
                <stop stop-color="#ffffff"></stop>
                <stop stop-opacity="0" stop-color="#ffffff" offset="1"></stop>
            </linearGradient>
        </defs>
    </g>
</svg>